PathFileType	4	(X/Y/Z)	C:\Users\Basilio\Documents\Thesis Gigler\squatting_fais\c3dfiles\075\SJ_pre5\markers_experimental.trc
DataRate	CameraRate	NumFrames	NumMarkers	Units	OrigDataRate	OrigDataStartFrame	OrigNumFrames
200.000000	200.000000	4	61	mm	200.000000	0	1470
Frame#	Time	FHD			LBHD			RBHD			C7			T10			CLAV			LSHO			LUUPA			LMUPA			LDUPA			LLEP			LMEP			LRAD			LUL			LRFIN			RSHO			RUPA1			RMUPA			RDUPA			RLEP			RMEP			RRAD			RUL			RUFIN			LASI			RASI			USACR			LSACR			RSACR			LTHI1			LTHI2			LTHI3			LTHI4			LLFC			LMFC			LTIB1			LTIB2			LTIB3			LTIB4			LLMAL			LMMAL			LHEE			LMT1			LMT2			LMT5			RTHI			RTHI2			RTHI3			RTHI4			RLFC			RMFC			RTIB1			RTIB2			RTIB3			RTIB4			RLMAL			RMMAL			RHEE			RMT1			RMT2			RMT5			
		X1	Y1	Z1	X2	Y2	Z2	X3	Y3	Z3	X4	Y4	Z4	X5	Y5	Z5	X6	Y6	Z6	X7	Y7	Z7	X8	Y8	Z8	X9	Y9	Z9	X10	Y10	Z10	X11	Y11	Z11	X12	Y12	Z12	X13	Y13	Z13	X14	Y14	Z14	X15	Y15	Z15	X16	Y16	Z16	X17	Y17	Z17	X18	Y18	Z18	X19	Y19	Z19	X20	Y20	Z20	X21	Y21	Z21	X22	Y22	Z22	X23	Y23	Z23	X24	Y24	Z24	X25	Y25	Z25	X26	Y26	Z26	X27	Y27	Z27	X28	Y28	Z28	X29	Y29	Z29	X30	Y30	Z30	X31	Y31	Z31	X32	Y32	Z32	X33	Y33	Z33	X34	Y34	Z34	X35	Y35	Z35	X36	Y36	Z36	X37	Y37	Z37	X38	Y38	Z38	X39	Y39	Z39	X40	Y40	Z40	X41	Y41	Z41	X42	Y42	Z42	X43	Y43	Z43	X44	Y44	Z44	X45	Y45	Z45	X46	Y46	Z46	X47	Y47	Z47	X48	Y48	Z48	X49	Y49	Z49	X50	Y50	Z50	X51	Y51	Z51	X52	Y52	Z52	X53	Y53	Z53	X54	Y54	Z54	X55	Y55	Z55	X56	Y56	Z56	X57	Y57	Z57	X58	Y58	Z58	X59	Y59	Z59	X60	Y60	Z60	X61	Y61	Z61	

1	0	-127.0241088867188	1636.572875976563	-915.667419433594	-307.4936523437501	1591.94091796875	-990.5498657226565	-263.3036804199219	1612.858154296875	-837.270446777344	-378.3976135253907	1464.358276367188	-930.4768066406252	-406.7080383300782	1137.928955078125	-923.7960205078127	-239.6391296386719	1392.69775390625	-927.3118286132815	-280.6500854492188	1428.5224609375	-1087.595825195313	-327.4000244140626	1273.398315429688	-1246.918701171875	-293.5862731933594	1237.031616210938	-1235.751831054688	-324.9945373535157	1212.600463867188	-1282.265380859375	-321.3091735839844	1128.823120117188	-1306.171630859375	-401.118377685547	1120.951416015625	-1258.799438476563	-302.5623168945313	943.2724609375002	-1140.0029296875	-259.7315063476563	907.9667968750002	-1190.743896484375	-258.6318969726563	933.3027343750002	-1096.307250976563	-279.9852905273438	1432.944946289063	-767.0625000000001	-334.9737854003907	1286.75732421875	-607.9147338867189	-306.0125732421876	1245.998901367188	-612.2595825195314	-343.6541748046876	1228.327880859375	-568.2808227539064	-344.3911132812501	1159.973876953125	-541.7102661132814	-418.2612609863282	1132.924682617188	-574.0204467773439	-300.4630126953126	960.4187622070315	-707.7404174804689	-254.0997467041016	939.0029296875002	-649.8204956054689	-241.6154479980469	956.2634887695315	-747.6784667968751	-256.4723510742188	943.9184570312502	-1046.74755859375	-245.4607543945313	962.236999511719	-798.5193481445315	-404.2594299316407	1042.664916992188	-922.9390258789065	-413.1615600585939	1010.472473144531	-948.461120605469	-411.1175842285157	1014.343078613281	-891.2178344726565	-320.1719055175782	718.7498168945314	-1121.600341796875	-289.2701416015626	639.9515380859376	-1123.109985351563	-242.6919250488282	645.1013793945314	-1108.238403320313	-316.8867797851563	586.8476562500001	-1113.613647460938	-318.7789306640626	479.368377685547	-1105.103515625	-273.6231079101563	464.5464477539064	-989.8518676757815	-269.3775634765626	353.3674316406251	-1082.782592773438	-332.3591613769532	318.0844421386719	-1130.771606445313	-291.0328369140626	309.4299926757813	-1113.216796875	-298.0066833496094	228.4042205810547	-1088.055053710938	-383.2605590820313	92.79141998291017	-1105.940795898438	-345.9349975585938	99.46014404296878	-1027.584838867188	-431.224822998047	49.07532501220705	-1060.859375	-217.8814697265626	52.74235916137697	-1065.758178710938	-223.8401947021485	57.65350723266603	-1114.340942382813	-267.1172485351563	41.67714309692384	-1163.292724609375	-317.9948730468751	778.309753417969	-712.3965454101564	-279.9191894531251	724.5017700195314	-710.2000122070314	-248.8957061767579	729.2783813476564	-721.5739746093751	-308.9574890136719	643.7213745117189	-712.5332641601564	-320.1149902343751	490.3774414062501	-732.5496826171876	-281.7500000000001	470.2434082031251	-852.7993164062502	-272.5139160156251	337.7842407226563	-778.4631958007815	-326.5142517089844	266.7131958007813	-714.6753540039064	-288.1790161132813	258.3157348632813	-742.8895263671876	-297.7086181640626	210.1899719238282	-775.142028808594	-370.2360534667969	91.82524871826173	-730.0081176757814	-334.8096618652344	109.3522720336914	-810.7916259765627	-414.4479370117189	48.70915985107423	-786.9237060546877	-205.6872711181641	59.14060974121095	-767.8882446289064	-211.5259857177735	59.65258026123048	-725.9768676757814	-251.0431365966797	36.0504379272461	-677.1700439453126	
2	0.005	-126.0994110107422	1635.539184570313	-916.3093872070315	-307.0156860351563	1592.367919921875	-991.2037353515627	-261.9493408203126	1613.056884765625	-836.868591308594	-378.3348388671876	1464.52294921875	-931.2273559570315	-406.6388549804689	1138.044311523438	-924.6748046875002	-240.2332916259766	1392.997680664063	-928.4216918945315	-279.9270324707032	1428.632690429688	-1087.906494140625	-327.3318786621094	1273.686889648438	-1247.786376953125	-293.6195983886719	1237.33837890625	-1236.581787109375	-325.0381164550782	1212.88671875	-1283.003540039063	-321.3869323730469	1129.137939453125	-1306.979736328125	-401.2378540039064	1121.314819335938	-1259.641967773438	-302.6539001464844	943.462585449219	-1140.818359375	-260.0301208496094	908.1871337890627	-1191.749633789063	-257.2958679199219	933.1572875976565	-1096.776611328125	-280.0682373046876	1432.98828125	-767.7250366210939	-335.2738342285157	1286.773071289063	-608.7649536132814	-306.3157043457032	1246.164428710938	-613.1928100585939	-344.0776977539063	1228.426025390625	-569.1726074218751	-344.6537780761719	1159.959594726563	-542.6403808593751	-418.5637817382814	1132.967895507813	-574.9036254882814	-300.6729431152344	960.4738769531252	-708.6964111328126	-254.2899322509766	939.0100097656252	-650.7745971679689	-241.6755676269532	956.3538818359377	-748.5463867187501	-256.6030578613282	943.9688720703127	-1047.676513671875	-245.6463470458985	962.2720336914065	-799.4956665039065	-404.2825927734376	1042.881958007813	-923.7736816406252	-413.3209228515626	1010.6484375	-949.2182617187502	-411.3128356933595	1014.545104980469	-891.9766235351565	-320.5891418457032	718.8143310546876	-1122.210571289063	-290.7689514160157	640.3283081054689	-1123.9248046875	-243.1853332519532	645.0180664062501	-1108.73291015625	-317.4111022949219	586.9253540039064	-1113.998046875	-319.6163330078126	479.3603515625001	-1105.398193359375	-274.2747497558594	464.6898498535157	-990.0554199218752	-269.9146118164063	353.5329284667969	-1082.981201171875	-332.9479980468751	318.0982360839844	-1130.94873046875	-291.5000610351563	309.4918823242188	-1113.387939453125	-298.2747192382813	228.4156951904297	-1088.141967773438	-383.3592834472657	92.71028137207033	-1105.926147460938	-345.9875488281251	99.4150314331055	-1027.65185546875	-431.2562255859376	49.03517913818361	-1060.87744140625	-217.8129882812501	52.77584838867189	-1065.815795898438	-223.8458709716797	57.58584594726564	-1114.410034179688	-267.0912170410157	41.62178039550782	-1163.371459960938	-318.3916625976563	778.452331542969	-713.1673583984376	-280.4251098632813	724.5720214843751	-711.2506103515626	-249.2893524169922	729.4419555664064	-722.3267822265626	-309.3995666503907	643.8786621093751	-713.1233520507814	-320.4919128417969	490.5375366210939	-733.1262207031251	-282.0429382324219	470.378875732422	-853.328063964844	-272.7176818847657	338.0385437011719	-778.922790527344	-326.8179626464844	266.9998168945313	-715.0951538085939	-288.3539733886719	258.5996093750001	-743.1612548828126	-297.9415893554688	210.3629608154297	-775.5234375000002	-370.3726806640626	91.93618011474611	-730.2406616210939	-334.8636474609376	109.5066375732422	-810.9871215820315	-414.5633544921876	48.60668563842775	-787.0065917968752	-205.8498687744141	59.22326278686525	-768.1331787109377	-211.6336822509766	59.96925735473634	-726.2653808593751	-251.0834045410157	36.27845764160157	-677.4903564453126	
3	0.01	-125.2606353759766	1634.508422851563	-917.0213623046877	-306.3365173339844	1592.777587890625	-991.5633544921877	-261.9391784667969	1612.802978515625	-838.2868652343752	-378.2711181640626	1464.705932617188	-931.8439941406252	-406.7357788085939	1138.23486328125	-925.508239746094	-240.2233428955079	1393.102661132813	-929.0208129882815	-279.8782958984376	1428.845947265625	-1088.570068359375	-327.2294616699219	1273.97265625	-1248.580932617188	-293.6027832031251	1237.678100585938	-1237.349609375	-325.0040893554688	1213.185668945313	-1283.776977539063	-321.4759216308594	1129.376098632813	-1307.735595703125	-401.3913574218751	1121.662963867188	-1260.405639648438	-303.1147460937501	944.1956176757815	-1141.3974609375	-260.2309875488282	908.393005371094	-1192.491943359375	-257.5732421875001	933.2144165039065	-1097.625366210938	-280.1264038085938	1433.057006835938	-768.459899902344	-335.4885559082032	1286.752685546875	-609.6018676757814	-306.5279235839844	1246.006591796875	-613.9033203125001	-344.2177429199219	1228.258422851563	-569.9300537109376	-345.0024414062501	1159.92626953125	-543.5981445312501	-418.8545532226564	1132.865356445313	-575.8820800781251	-300.6817626953126	960.5223388671877	-709.5401611328126	-254.5949859619141	938.9820556640627	-651.7241210937501	-242.1493682861329	956.369812011719	-749.6751708984376	-256.8493652343751	943.9219360351565	-1048.572387695313	-245.8297119140626	962.3547973632815	-800.371032714844	-404.4520263671876	1043.07666015625	-924.6197509765627	-413.3961486816407	1010.830322265625	-950.094421386719	-411.5573730468751	1014.752319335938	-892.7977294921877	-321.0088195800782	718.8186645507814	-1122.636108398438	-291.3316955566407	640.3738403320314	-1124.3173828125	-243.7295379638672	644.9785156250001	-1109.197143554688	-317.9093322753907	586.9824218750001	-1114.302612304688	-320.2225036621094	479.3916015625001	-1105.605346679688	-274.9627685546876	464.8330383300782	-990.206726074219	-270.5618286132813	353.5852661132813	-1083.232666015625	-333.4592895507813	318.0889587402344	-1131.099487304688	-291.9222717285157	309.5364379882813	-1113.543579101563	-298.4753723144532	228.4913024902344	-1088.236694335938	-383.4320068359376	92.62756347656251	-1105.915283203125	-346.0502929687501	99.40532684326175	-1027.717163085938	-431.2395324707032	49.06200027465822	-1060.897583007813	-217.8191680908204	52.76436233520509	-1065.864501953125	-223.841049194336	57.54860687255861	-1114.4287109375	-267.1856079101563	41.56799316406251	-1163.421020507813	-318.7692260742188	778.5942382812502	-713.7367553710939	-280.8066711425782	724.8993530273439	-711.5712890625001	-249.7253723144532	729.5548095703126	-722.9642944335939	-309.7476196289063	644.0754394531251	-713.6041259765626	-320.8490295410157	490.6639709472657	-733.6043701171876	-282.1952819824219	470.5088500976564	-853.8464355468752	-272.8982849121094	338.2498474121094	-779.2837524414065	-327.0387268066407	267.2633056640626	-715.4849243164064	-288.6751708984376	258.7637023925782	-743.5664672851564	-298.1669921875001	210.6065521240235	-775.916442871094	-370.5256652832032	92.10083770751955	-730.4468383789064	-335.0579223632813	109.6098861694336	-811.3031005859377	-414.6993408203126	48.54281616210939	-787.1668090820315	-205.961654663086	59.38315200805665	-768.4055175781252	-211.7605743408204	60.29909133911134	-726.5827636718751	-251.189926147461	36.53537750244141	-677.7533569335939	
4	0.015	-124.4412536621094	1633.398681640625	-917.608337402344	-305.9181213378907	1593.2900390625	-992.238220214844	-261.2442321777344	1612.763671875	-838.8269042968752	-378.2294006347657	1464.90625	-932.5087890625002	-406.8349914550782	1138.346069335938	-926.4108886718752	-239.5157928466797	1393.038940429688	-929.2276000976565	-279.8079833984376	1429.065673828125	-1089.193603515625	-327.3194885253907	1274.20361328125	-1249.218383789063	-293.5671691894532	1237.935668945313	-1238.003051757813	-324.9940795898438	1213.451538085938	-1284.53564453125	-321.4129333496094	1129.643676757813	-1308.576293945313	-401.428924560547	1121.9638671875	-1261.220947265625	-303.0904235839844	943.874938964844	-1142.464477539063	-260.4259948730469	908.6364746093752	-1193.265869140625	-259.3387145996094	933.5623779296877	-1098.815551757813	-280.1944274902344	1433.121459960938	-769.1195068359377	-335.7653503417969	1286.759887695313	-610.4026489257814	-306.8340148925782	1245.986083984375	-614.7528076171876	-344.4725341796876	1228.233032226563	-570.7799072265626	-345.3037414550782	1159.87890625	-544.3153686523439	-419.1402587890626	1132.89990234375	-576.7778320312501	-301.0224609375001	960.5554809570315	-710.4462890625001	-254.8082885742188	938.9507446289065	-652.6675415039064	-242.4694519042969	956.389587402344	-750.6472167968751	-257.0579528808594	943.9483032226565	-1049.308349609375	-246.0704193115235	962.4504394531252	-801.1626586914065	-404.5372314453126	1043.261962890625	-925.4951171875002	-413.5991821289064	1011.015075683594	-950.9515380859377	-411.6751403808595	1014.930969238281	-893.662536621094	-321.3709106445313	718.8545532226564	-1123.060180664063	-291.7316589355469	640.3616333007814	-1124.697021484375	-244.1638641357422	644.9131469726564	-1109.595336914063	-318.4562683105469	587.0524291992189	-1114.597412109375	-320.7787780761719	479.4566650390626	-1105.852905273438	-275.3947753906251	464.929656982422	-990.4539184570315	-271.0831298828126	353.6728515625001	-1083.332641601563	-333.9162292480469	318.1815185546876	-1131.2626953125	-292.3320312500001	309.6366882324219	-1113.67724609375	-298.7187194824219	228.5503692626954	-1088.3740234375	-383.4139099121094	92.56853485107423	-1105.93017578125	-346.1294555664063	99.39058685302737	-1027.732421875	-431.2449035644532	49.02957153320314	-1060.894775390625	-217.8149566650391	52.76229095458986	-1065.88671875	-223.8799896240235	57.48863220214845	-1114.473388671875	-267.0952758789063	41.49376296997071	-1163.436767578125	-319.0891113281251	778.7086181640627	-714.3119506835939	-281.1476135253907	724.9352416992189	-712.1970825195314	-250.1047973632813	729.6676635742189	-723.7381591796876	-310.0976867675782	644.2366333007814	-714.1018066406251	-321.0827636718751	490.8204345703126	-734.1200561523439	-282.3371582031251	470.6743469238282	-854.4029541015627	-272.9794616699219	338.4714355468751	-779.5417480468752	-327.3454895019532	267.5011291503907	-715.9063720703126	-288.9567871093751	259.0050964355469	-743.9105224609376	-298.8727722167969	211.0316619873047	-776.660095214844	-370.6898193359376	92.27221679687501	-730.6799926757814	-335.1884765625001	109.7792587280274	-811.4663085937502	-414.7718200683595	48.46317291259767	-787.3047485351565	-206.1161804199219	59.50951004028322	-768.7183837890627	-211.8725585937501	60.60934448242189	-726.9259033203126	-251.3096771240235	36.75744628906251	-678.0705566406251	
